<?xml version="1.0" encoding="utf-8"?>
<!-- Generator: Adobe Illustrator 16.0.0, SVG Export Plug-In . SVG Version: 6.00 Build 0)  -->
<!DOCTYPE svg PUBLIC "-//W3C//DTD SVG 1.1//EN" "http://www.w3.org/Graphics/SVG/1.1/DTD/svg11.dtd">
<svg version="1.1" id="Layer_1" xmlns="http://www.w3.org/2000/svg" xmlns:xlink="http://www.w3.org/1999/xlink" x="0px" y="0px"
	 width="46px" height="46px" viewBox="0 0 46 46" enable-background="new 0 0 46 46" xml:space="preserve">
<g>
	<circle fill-rule="evenodd" clip-rule="evenodd" fill="#F15F61" cx="23" cy="23" r="23"/>
	<g>
		<path fill="#FFFFFF" d="M24.941,30.545c0,0.547-0.188,1.002-0.561,1.367c-0.375,0.365-0.836,0.549-1.381,0.549
			c-0.544,0-1.004-0.184-1.378-0.549S21.06,31.1,21.06,30.57c0-0.594,0.183-1.076,0.549-1.441c0.365-0.365,0.847-0.549,1.444-0.549
			c0.527,0,0.973,0.191,1.34,0.574C24.758,29.537,24.941,30.002,24.941,30.545z M24.764,13.538l-0.689,13.484h-2.171l-0.689-13.484
			H24.764z"/>
	</g>
</g>
</svg>
